<?xml version="1.0" encoding="UTF-8"?>
<!DOCTYPE svg PUBLIC "-//W3C//DTD SVG 1.1//EN" "http://www.w3.org/Graphics/SVG/1.1/DTD/svg11.dtd">
<svg xmlns="http://www.w3.org/2000/svg" version="1.1" width="250px" height="250px" style="shape-rendering:geometricPrecision; text-rendering:geometricPrecision; image-rendering:optimizeQuality; fill-rule:evenodd; clip-rule:evenodd" xmlns:xlink="http://www.w3.org/1999/xlink">
<g><path style="opacity:0.993" fill="#2DCEA2" d="M 115.5,15.5 C 117.167,15.5 118.833,15.5 120.5,15.5C 120.5,16.8333 120.5,18.1667 120.5,19.5C 117.359,18.9082 115.026,19.9082 113.5,22.5C 113.833,23.1667 114.167,23.8333 114.5,24.5C 118.157,22.5623 120.157,23.5623 120.5,27.5C 115.685,26.8551 114.019,28.6885 115.5,33C 117.899,33.711 120.232,33.5443 122.5,32.5C 123.833,33.8333 123.833,35.1667 122.5,36.5C 119.167,37.1667 115.833,37.8333 112.5,38.5C 111.808,37.9747 111.308,37.3081 111,36.5C 110.1,29.8274 109.266,23.1608 108.5,16.5C 111.059,16.8016 113.393,16.4682 115.5,15.5 Z"/></g>
<g><path style="opacity:0.985" fill="#2DCEA2" d="M 93.5,19.5 C 94.8221,19.33 95.9887,19.6634 97,20.5C 99.3057,26.2787 101.472,32.1121 103.5,38C 102.991,39.1685 102.158,40.0019 101,40.5C 97.3333,37.8333 93.6667,35.1667 90,32.5C 89.989,35.8147 90.8223,38.9813 92.5,42C 91.9019,43.3012 90.9019,44.1345 89.5,44.5C 86.74,38.0572 84.0734,31.5572 81.5,25C 82.5929,23.6346 83.9262,23.3013 85.5,24C 88.6919,26.6924 92.0252,29.1924 95.5,31.5C 95.8333,31.1667 96.1667,30.8333 96.5,30.5C 94.3853,26.8697 93.3853,23.2031 93.5,19.5 Z"/></g>
<g><path style="opacity:0.977" fill="#2DCEA2" d="M 148.5,19.5 C 153.14,18.736 157.14,19.9026 160.5,23C 159.929,24.2051 159.262,25.3717 158.5,26.5C 156.774,24.9702 154.774,23.9702 152.5,23.5C 151,23.4528 150,24.1195 149.5,25.5C 152.208,27.6105 155.041,29.6105 158,31.5C 159.365,39.7616 155.865,42.9282 147.5,41C 142.829,39.5008 141.662,36.6674 144,32.5C 146.16,36.9173 149.494,38.2507 154,36.5C 154.749,35.365 154.583,34.365 153.5,33.5C 145.088,31.044 143.422,26.3773 148.5,19.5 Z"/></g>
<g><path style="opacity:0.983" fill="#2DCEA2" d="M 170.5,25.5 C 175.009,27.9191 179.342,30.5857 183.5,33.5C 182.264,36.7577 180.43,36.7577 178,33.5C 174.599,38.5773 171.599,43.9107 169,49.5C 167.581,48.5399 166.081,47.7065 164.5,47C 167.5,42 170.5,37 173.5,32C 171.999,30.7485 170.332,29.7485 168.5,29C 169.305,27.8873 169.972,26.7206 170.5,25.5 Z"/></g>
<g><path style="opacity:0.985" fill="#2DCEA2" d="M 69.5,29.5 C 74.0307,35.2221 78.0307,41.3887 81.5,48C 80.0692,48.4652 78.9025,49.2986 78,50.5C 74.4162,44.3305 70.5829,38.3305 66.5,32.5C 67.3398,31.265 68.3398,30.265 69.5,29.5 Z"/></g>
<g><path style="opacity:0.974" fill="#2DCEA2" d="M 52.5,41.5 C 53.2389,41.369 53.9056,41.5357 54.5,42C 57.8333,45.6667 61.1667,49.3333 64.5,53C 66.678,53.1652 68.5114,52.3318 70,50.5C 70.4652,51.9308 71.2986,53.0975 72.5,54C 69.7047,55.7932 67.2047,57.9598 65,60.5C 60.1667,55 55.3333,49.5 50.5,44C 51.3805,43.2917 52.0472,42.4584 52.5,41.5 Z"/></g>
<g><path style="opacity:0.98" fill="#2DCEA2" d="M 188.5,42.5 C 200.15,41.9744 204.65,47.3077 202,58.5C 197.223,64.9443 191.39,66.111 184.5,62C 178.379,53.8806 179.712,47.3806 188.5,42.5 Z M 190.5,46.5 C 198.294,46.8001 200.461,50.4667 197,57.5C 193.333,61.5 189.667,61.5 186,57.5C 184.393,52.4383 185.893,48.7716 190.5,46.5 Z"/></g>
<g><path style="opacity:0.986" fill="#2DCEA2" d="M 41.5,52.5 C 47.4566,56.457 53.1233,60.7903 58.5,65.5C 58.2907,66.086 57.9574,66.586 57.5,67C 52.8333,67.3333 48.1667,67.6667 43.5,68C 46.4833,69.9841 49.15,72.3174 51.5,75C 51.3865,76.2798 50.7199,77.1131 49.5,77.5C 43.4778,73.8217 37.8111,69.655 32.5,65C 33.5448,63.474 35.0448,62.6406 37,62.5C 41.1473,63.406 45.314,63.5726 49.5,63C 46.073,61.204 42.9063,59.0373 40,56.5C 39.7003,54.9343 40.2003,53.601 41.5,52.5 Z"/></g>
<g><path style="opacity:0.985" fill="#2DCEA2" d="M 213.5,61.5 C 217.951,64.6784 219.785,69.0117 219,74.5C 216.53,77.8283 213.363,78.995 209.5,78C 207.709,80.414 206.043,82.914 204.5,85.5C 203.155,84.6533 202.155,83.4866 201.5,82C 203.998,79.5521 205.498,76.7187 206,73.5C 205.667,73.1667 205.333,72.8333 205,72.5C 202.966,74.0316 200.799,75.3649 198.5,76.5C 197.585,75.6721 196.919,74.6721 196.5,73.5C 202.02,69.2445 207.687,65.2445 213.5,61.5 Z M 211.5,67.5 C 216.255,69.116 216.589,71.4493 212.5,74.5C 207.943,72.471 207.61,70.1377 211.5,67.5 Z"/></g>
<g><path style="opacity:0.984" fill="#2DCEA2" d="M 29.5,77.5 C 42.0591,78.6239 45.8925,84.9572 41,96.5C 33.025,102.672 26.6917,101.339 22,92.5C 20.2892,85.2543 22.7892,80.2543 29.5,77.5 Z M 29.5,82.5 C 38.1096,82.5715 40.7762,86.4048 37.5,94C 33.4071,96.3169 29.7405,95.8169 26.5,92.5C 24.5474,88.1357 25.5474,84.8024 29.5,82.5 Z"/></g>
<g><path style="opacity:0.98" fill="#2DCEA2" d="M 225.5,83.5 C 227.931,87.1108 229.597,91.1108 230.5,95.5C 229.178,95.33 228.011,95.6634 227,96.5C 226.484,93.7494 225.317,91.4161 223.5,89.5C 220.494,90.5514 220.161,92.5514 222.5,95.5C 221.672,96.4147 220.672,97.0814 219.5,97.5C 218.286,92.3444 215.619,91.3444 211.5,94.5C 212.601,96.6416 213.601,98.8083 214.5,101C 213.135,102.682 211.635,102.849 210,101.5C 208.361,98.2577 207.361,94.9243 207,91.5C 213.299,88.9284 219.466,86.2618 225.5,83.5 Z"/></g>
<g><path style="opacity:0.999" fill="#2DCEA2" d="M 175.5,160.5 C 151.006,161.498 126.339,161.831 101.5,161.5C 100.82,155.88 102.154,150.88 105.5,146.5C 112.485,141.674 120.152,138.507 128.5,137C 132.047,133.51 133.214,129.343 132,124.5C 129.938,122.099 128.271,119.433 127,116.5C 126.333,108.833 126.333,101.167 127,93.5C 128.229,89.5482 130.896,87.2149 135,86.5C 138.452,88.976 142.285,90.476 146.5,91C 148.617,92.7309 150.117,94.8976 151,97.5C 152.088,105.348 151.421,113.015 149,120.5C 143.989,124.338 143.322,129.005 147,134.5C 150.82,137.811 155.32,139.644 160.5,140C 164.828,141.829 168.828,144.162 172.5,147C 174.834,151.174 175.834,155.674 175.5,160.5 Z"/></g>
<g><path style="opacity:0.991" fill="#2DCEA2" d="M 94.5,108.5 C 96.2825,109.114 97.6159,110.28 98.5,112C 94.0412,116.556 90.0412,121.556 86.5,127C 96.5,127.667 106.5,127.667 116.5,127C 113.257,123.179 110.257,119.179 107.5,115C 105.802,115.497 104.135,115.33 102.5,114.5C 101.052,111.787 101.719,109.787 104.5,108.5C 110.675,115.555 116.341,122.888 121.5,130.5C 105.5,130.5 89.5,130.5 73.5,130.5C 73.5,129.5 73.5,128.5 73.5,127.5C 76.5184,127.665 79.5184,127.498 82.5,127C 86.0247,123.443 89.1914,119.61 92,115.5C 91.8047,113.874 91.8047,112.207 92,110.5C 92.9947,109.934 93.828,109.267 94.5,108.5 Z"/></g>
<g><path style="opacity:0.994" fill="#2DCEA2" d="M 23.5,118.5 C 32.8578,118.342 36.3578,122.675 34,131.5C 28.6702,136.842 23.6702,136.509 19,130.5C 17.4742,125.239 18.9742,121.239 23.5,118.5 Z"/></g>
<g><path style="opacity:0.995" fill="#2DCEA2" d="M 218.5,118.5 C 225.144,117.649 229.144,120.482 230.5,127C 229.678,131.822 226.844,134.656 222,135.5C 212.189,131.609 211.022,125.943 218.5,118.5 Z"/></g>
<g><path style="opacity:0.996" fill="#2DCEA2" d="M 76.5,133.5 C 89.8375,133.333 103.171,133.5 116.5,134C 109.497,135.334 103.497,138.501 98.5,143.5C 97.8333,142.5 97.1667,141.5 96.5,140.5C 93.6469,147.548 91.9803,154.881 91.5,162.5C 88.5,162.5 85.5,162.5 82.5,162.5C 80.0253,152.934 78.0253,143.268 76.5,133.5 Z M 85.5,140.5 C 86.5,140.5 87.5,140.5 88.5,140.5C 88.5,145.5 88.5,150.5 88.5,155.5C 87.5,155.5 86.5,155.5 85.5,155.5C 85.5,150.5 85.5,145.5 85.5,140.5 Z"/></g>
<g><path style="opacity:0.979" fill="#2DCEA2" d="M 205.5,149.5 C 207.311,149.572 208.644,150.405 209.5,152C 208.391,154.047 207.724,156.213 207.5,158.5C 208.822,158.33 209.989,158.663 211,159.5C 211.667,157.5 212.333,155.5 213,153.5C 214.011,154.337 215.178,154.67 216.5,154.5C 216.528,156.582 215.861,158.416 214.5,160C 215.774,161.221 217.274,162.054 219,162.5C 220.77,160.383 222.27,158.049 223.5,155.5C 224.672,155.919 225.672,156.585 226.5,157.5C 225,161.167 223.5,164.833 222,168.5C 215.672,165.668 209.172,163.335 202.5,161.5C 203.488,157.515 204.488,153.515 205.5,149.5 Z"/></g>
<g><path style="opacity:0.985" fill="#2DCEA2" d="M 35.5,151.5 C 45.8455,152.874 49.6788,158.541 47,168.5C 41.2256,175.37 34.8922,176.036 28,170.5C 22.8321,160.904 25.3321,154.571 35.5,151.5 Z M 34.5,156.5 C 41.327,155.825 44.1603,158.825 43,165.5C 40.4425,169.212 36.9425,170.378 32.5,169C 28.0776,163.952 28.7442,159.786 34.5,156.5 Z"/></g>
<g><path style="opacity:0.275" fill="#2DCEA2" d="M 175.5,160.5 C 176.043,160.56 176.376,160.893 176.5,161.5C 151.337,162.829 126.337,162.829 101.5,161.5C 126.339,161.831 151.006,161.498 175.5,160.5 Z"/></g>
<g><path style="opacity:0.98" fill="#2DCEA2" d="M 199.5,167.5 C 204.546,167.213 207.546,169.546 208.5,174.5C 211.747,175.65 215.08,176.483 218.5,177C 216.271,180.721 213.104,181.554 209,179.5C 207.596,179.509 206.43,180.009 205.5,181C 207.657,182.912 209.991,184.579 212.5,186C 211.845,187.487 210.845,188.653 209.5,189.5C 204.086,185.709 198.586,182.043 193,178.5C 192.333,177.5 192.333,176.5 193,175.5C 194.479,172.172 196.645,169.506 199.5,167.5 Z M 199.5,172.5 C 205.039,172.965 205.873,175.299 202,179.5C 200.365,178.274 198.865,176.941 197.5,175.5C 198.193,174.482 198.859,173.482 199.5,172.5 Z"/></g>
<g><path style="opacity:0.981" fill="#2DCEA2" d="M 51.5,173.5 C 53.3464,173.222 54.6798,173.889 55.5,175.5C 53.6443,180.172 52.1443,184.839 51,189.5C 54,187.167 57,184.833 60,182.5C 61.1667,183.667 62.3333,184.833 63.5,186C 57.3621,189.972 51.3621,194.138 45.5,198.5C 44.5853,197.672 43.9186,196.672 43.5,195.5C 45.2691,191.356 46.9358,187.19 48.5,183C 47.8333,182.333 47.1667,182.333 46.5,183C 43.9893,184.848 41.4893,186.681 39,188.5C 37.5659,188.07 36.3992,187.236 35.5,186C 41.0836,182.055 46.417,177.888 51.5,173.5 Z"/></g>
<g><path style="opacity:0.985" fill="#2DCEA2" d="M 185.5,185.5 C 196.3,185.469 200.8,190.802 199,201.5C 192.784,210.408 186.117,210.741 179,202.5C 176.192,194.802 178.358,189.135 185.5,185.5 Z M 186.5,189.5 C 195.539,191.068 197.539,195.568 192.5,203C 184,204.171 180.834,200.671 183,192.5C 184.145,191.364 185.312,190.364 186.5,189.5 Z"/></g>
<g><path style="opacity:0.976" fill="#2DCEA2" d="M 67.5,189.5 C 68.9616,190.458 70.2949,191.624 71.5,193C 67.5,197.333 63.5,201.667 59.5,206C 60.8678,207.34 62.2011,208.674 63.5,210C 63.3333,211.5 62.5,212.333 61,212.5C 58.2162,210.72 55.7162,208.553 53.5,206C 58.3771,200.627 63.0438,195.127 67.5,189.5 Z"/></g>
<g><path style="opacity:0.983" fill="#2DCEA2" d="M 170.5,197.5 C 171.837,198.315 172.837,199.482 173.5,201C 171.668,201.748 170.001,202.748 168.5,204C 171.334,208.686 174.001,213.52 176.5,218.5C 175.653,219.845 174.487,220.845 173,221.5C 170.014,216.199 167.014,210.865 164,205.5C 160.152,209.932 158.652,209.432 159.5,204C 163.322,201.913 166.989,199.747 170.5,197.5 Z"/></g>
<g><path style="opacity:0.988" fill="#2DCEA2" d="M 79.5,199.5 C 81.2554,200.072 82.9221,200.906 84.5,202C 80.9574,207.586 77.2907,213.086 73.5,218.5C 70.4097,219.914 69.243,218.914 70,215.5C 73.4414,210.276 76.6081,204.943 79.5,199.5 Z"/></g>
<g><path style="opacity:0.982" fill="#2DCEA2" d="M 90.5,204.5 C 91.7206,205.028 92.8873,205.695 94,206.5C 95,211.167 96,215.833 97,220.5C 98.6667,216.5 100.333,212.5 102,208.5C 103.205,209.071 104.372,209.738 105.5,210.5C 103.411,217.44 100.745,224.106 97.5,230.5C 95.8333,230.167 94.8333,229.167 94.5,227.5C 93.6412,223.345 92.4745,219.345 91,215.5C 89.986,219.378 88.486,223.044 86.5,226.5C 85.0981,226.135 84.0981,225.301 83.5,224C 85.9406,217.51 88.2739,211.01 90.5,204.5 Z"/></g>
<g><path style="opacity:0.984" fill="#2DCEA2" d="M 147.5,207.5 C 149.833,207.5 152.167,207.5 154.5,207.5C 154.66,209.199 154.494,210.866 154,212.5C 151.936,211.409 149.769,211.242 147.5,212C 146.167,213.333 146.167,214.667 147.5,216C 150.89,216.246 154.223,216.746 157.5,217.5C 160.557,221.992 159.89,225.825 155.5,229C 152.312,230.383 149.146,230.549 146,229.5C 144.813,227.956 144.48,226.289 145,224.5C 148.948,227.306 152.448,226.806 155.5,223C 155.355,222.228 155.022,221.561 154.5,221C 151.167,220.667 147.833,220.333 144.5,220C 140.086,214.488 141.086,210.322 147.5,207.5 Z"/></g>
<g><path style="opacity:0.99" fill="#2DCEA2" d="M 111.5,210.5 C 115.466,211.162 119.466,211.495 123.5,211.5C 123.66,213.199 123.494,214.866 123,216.5C 120.619,215.565 118.119,215.232 115.5,215.5C 115.5,216.833 115.5,218.167 115.5,219.5C 117.527,219.338 119.527,219.505 121.5,220C 120.663,221.011 120.33,222.178 120.5,223.5C 118.5,223.5 116.5,223.5 114.5,223.5C 113.735,228.906 116.069,230.906 121.5,229.5C 121.5,230.833 121.5,232.167 121.5,233.5C 117.5,233.167 113.5,232.833 109.5,232.5C 110.002,225.151 110.669,217.817 111.5,210.5 Z"/></g>
</svg>
